M48
;DRILL file {kicad (2015-01-16 BZR 5376)-product} date 5/21/2015 9:03:15 PM
;FORMAT={-:-/ absolute / inch / decimal}
FMAT,2
INCH,TZ
T1C0.022
T2C0.024
T3C0.030
T4C0.031
T5C0.039
T6C0.039
T7C0.039
T8C0.040
T9C0.051
%
G90
G05
M72
T1
X3.635Y-4.705
X3.69Y-4.48
X3.81Y-4.83
X3.855Y-4.75
X4.03Y-4.905
X4.155Y-3.54
X4.23Y-4.765
X4.265Y-3.665
X4.27Y-4.905
X4.28Y-3.515
X4.28Y-3.96
X4.28Y-4.19
X4.285Y-4.325
X4.285Y-4.605
X4.295Y-4.445
X4.33Y-4.845
X4.37Y-3.93
X4.375Y-3.84
X4.385Y-4.635
X4.425Y-3.95
X4.4488Y-3.8819
X4.46Y-4.13
X4.51Y-3.625
X4.525Y-4.845
X4.565Y-4.55
X4.615Y-4.26
X4.63Y-3.5
X4.66Y-4.295
X4.66Y-4.555
X4.72Y-4.54
X4.745Y-4.385
X4.755Y-4.215
X4.77Y-4.575
X4.865Y-4.23
X4.915Y-4.83
X5.005Y-3.935
X5.025Y-4.85
X5.07Y-3.605
X5.09Y-3.51
X5.11Y-3.635
X5.115Y-4.525
X5.13Y-4.85
X5.19Y-4.1
X5.19Y-4.15
X5.19Y-4.205
X5.19Y-4.255
X5.19Y-4.305
X5.19Y-4.355
X5.19Y-4.405
X5.19Y-4.455
X5.19Y-4.51
X5.19Y-4.565
X5.19Y-4.615
X5.195Y-4.05
X5.225Y-4.88
X5.39Y-3.495
X5.47Y-4.515
X5.51Y-3.8
X5.51Y-4.56
X5.565Y-3.83
X5.565Y-4.565
X5.615Y-4.5625
X5.63Y-3.795
X5.635Y-3.735
X5.6525Y-4.4525
X5.6775Y-4.3125
X5.6775Y-4.365
X5.68Y-4.2
X5.68Y-4.4125
X5.72Y-4.175
X5.75Y-3.485
X5.775Y-3.78
X5.79Y-3.515
X5.825Y-3.56
X5.84Y-4.16
X5.87Y-4.6
X5.8725Y-4.65
X5.875Y-3.775
X5.89Y-3.835
X5.91Y-4.09
X5.93Y-3.79
X5.95Y-4.26
X5.965Y-4.105
X5.965Y-4.155
X5.965Y-4.205
X5.985Y-4.295
X6.015Y-4.335
X6.07Y-3.745
X6.07Y-4.33
X6.075Y-4.69
X6.115Y-4.29
X6.155Y-3.655
X6.1775Y-4.61
X6.18Y-3.755
X6.195Y-3.87
X6.2Y-3.61
X6.225Y-4.715
X6.235Y-3.655
X6.24Y-3.765
X6.245Y-3.815
X6.315Y-4.605
X6.38Y-4.595
X6.44Y-4.585
X6.505Y-4.57
X6.51Y-4.045
X6.565Y-4.56
X6.59Y-4.745
X6.59Y-5.085
X6.625Y-4.55
X6.65Y-3.545
X6.65Y-4.69
X6.655Y-3.755
X6.66Y-3.68
X6.66Y-4.905
X6.725Y-3.695
X7.32Y-3.615
X7.37Y-3.65
X7.445Y-3.835
X7.55Y-4.53
X7.6Y-3.665
X7.735Y-3.715
X7.815Y-4.985
X8.06Y-3.965
X8.06Y-4.895
X8.11Y-5.145
X8.13Y-4.555
X8.17Y-4.885
X8.255Y-4.885
X8.39Y-4.975
X8.43Y-4.58
T2
X5.7805Y-3.725
X5.8395Y-3.725
T4
X8.0263Y-3.32
X8.105Y-3.32
X8.1837Y-3.32
T5
X3.85Y-3.75
X3.85Y-3.85
X3.85Y-3.95
X3.85Y-4.05
X3.85Y-4.15
X3.85Y-4.25
X3.85Y-4.35
X3.85Y-4.45
X3.85Y-4.55
X3.85Y-4.65
X3.95Y-3.75
X3.95Y-3.85
X3.95Y-3.95
X3.95Y-4.05
X3.95Y-4.15
X3.95Y-4.25
X3.95Y-4.35
X3.95Y-4.45
X3.95Y-4.55
X3.95Y-4.65
T6
X7.9475Y-3.32
X8.2625Y-3.32
T8
X3.8Y-3.4
X3.8Y-5.
X3.9Y-3.4
X3.9Y-5.
X4.Y-3.4
X4.Y-5.
X4.1Y-3.4
X4.1Y-5.
X4.2Y-3.4
X4.2Y-5.
X4.3Y-3.4
X4.3Y-5.
X4.4Y-3.4
X4.4Y-5.
X4.5Y-3.4
X4.5Y-5.
X4.6Y-3.4
X4.6Y-5.
X4.7Y-3.4
X4.7Y-5.
X4.8Y-3.4
X4.8Y-5.
X4.9Y-3.4
X4.9Y-5.
X4.97Y-4.14
X4.97Y-4.24
X4.97Y-4.34
X4.97Y-4.44
X5.Y-3.4
X5.Y-5.
X5.07Y-4.14
X5.07Y-4.24
X5.07Y-4.34
X5.07Y-4.44
X5.1Y-3.4
X5.1Y-5.
X5.2Y-3.4
X5.2Y-5.
X5.3Y-3.4
X5.3Y-5.
X5.4Y-3.4
X5.4Y-5.
X5.5Y-3.4
X5.5Y-5.
X5.6Y-3.4
X5.6Y-5.
X5.7Y-3.4
X5.7Y-5.
X5.8Y-3.4
X5.8Y-5.
X5.9Y-3.4
X5.9Y-5.
X6.Y-3.4
X6.Y-5.
X6.1Y-3.4
X6.1Y-5.
X6.2Y-3.4
X6.2Y-5.
X6.3Y-3.4
X6.3Y-5.
X6.4Y-3.4
X6.4Y-5.
X6.5Y-3.4
X6.5Y-5.
X6.6Y-3.4
X6.6Y-5.
X6.7Y-3.4
X6.7Y-5.
X6.8Y-3.4
X6.8Y-5.
X6.9Y-3.4
X6.9Y-5.
X7.Y-3.4
X7.Y-5.
X7.1Y-3.4
X7.1Y-5.
X7.2Y-3.4
X7.2Y-5.
X7.3Y-3.4
X7.3Y-5.
X7.4Y-3.4
X7.4Y-5.
X7.5Y-3.4
X7.5Y-5.
X7.6Y-3.4
X7.6Y-5.
X7.7Y-3.4
X7.7Y-5.
T9
X7.065Y-3.8326
X7.065Y-4.62
T3
X8.45Y-4.7024G85X8.45Y-4.6984
G05
X8.45Y-4.8992G85X8.45Y-4.8953
G05
T7
X8.1559Y-3.7394G85X8.1559Y-3.6607
G05
X8.3133Y-3.515G85X8.2347Y-3.515
G05
X8.3921Y-3.7394G85X8.3921Y-3.6607
G05
T0
M30
