M48
;DRILL file {kicad (2015-01-16 BZR 5376)-product} date 12-Jul-16 12:06:57 PM
;FORMAT={-:-/ absolute / metric / decimal}
FMAT,2
METRIC,TZ
T1C0.550
T2C0.599
T3C0.800
T4C0.900
T5C0.998
T6C1.000
T7C1.001
T8C1.016
T9C1.298
%
G90
G05
M71
T1
X92.329Y-119.507
X93.726Y-113.792
X96.774Y-122.682
X97.917Y-120.65
X102.362Y-124.587
X105.537Y-89.916
X107.442Y-121.031
X108.331Y-93.091
X108.458Y-124.587
X108.712Y-89.281
X108.712Y-100.584
X108.712Y-106.426
X108.839Y-109.855
X108.839Y-116.967
X109.093Y-112.903
X109.982Y-123.063
X110.998Y-99.822
X111.125Y-97.536
X111.379Y-117.729
X112.395Y-100.33
X113.Y-98.6
X113.284Y-104.902
X114.554Y-92.075
X114.935Y-123.063
X115.951Y-115.57
X117.221Y-108.204
X117.602Y-88.9
X118.364Y-109.093
X118.364Y-115.697
X119.888Y-115.316
X120.523Y-111.379
X120.777Y-107.061
X121.158Y-116.205
X123.571Y-107.442
X124.841Y-122.682
X127.127Y-99.949
X127.635Y-123.19
X128.778Y-91.567
X129.286Y-89.154
X129.794Y-92.329
X129.921Y-114.935
X130.302Y-123.19
X131.826Y-104.14
X131.826Y-105.41
X131.826Y-106.807
X131.826Y-108.077
X131.826Y-109.347
X131.826Y-110.617
X131.826Y-111.887
X131.826Y-113.157
X131.826Y-114.554
X131.826Y-115.951
X131.826Y-117.221
X131.953Y-102.87
X132.715Y-123.952
X136.906Y-88.773
X138.938Y-114.681
X139.954Y-96.52
X139.954Y-115.824
X141.351Y-97.282
X141.351Y-115.951
X142.621Y-115.887
X143.002Y-96.393
X143.129Y-94.869
X143.574Y-113.093
X144.208Y-109.537
X144.208Y-110.871
X144.272Y-106.68
X144.272Y-112.078
X145.288Y-106.045
X146.05Y-88.519
X146.685Y-96.012
X147.066Y-89.281
X147.955Y-90.424
X148.336Y-105.664
X149.098Y-116.84
X149.161Y-118.11
X149.225Y-95.885
X149.606Y-97.409
X150.114Y-103.886
X150.622Y-96.266
X151.13Y-108.204
X151.511Y-104.267
X151.511Y-105.537
X151.511Y-106.807
X152.019Y-109.093
X152.781Y-110.109
X154.178Y-95.123
X154.178Y-109.982
X154.305Y-119.126
X155.321Y-108.966
X156.337Y-92.837
X156.909Y-117.094
X156.972Y-95.377
X157.353Y-98.298
X157.48Y-91.694
X158.115Y-119.761
X158.369Y-92.837
X158.496Y-95.631
X158.623Y-96.901
X160.401Y-116.967
X162.052Y-116.713
X163.576Y-116.459
X165.227Y-116.078
X165.354Y-102.743
X166.751Y-115.824
X167.386Y-120.523
X167.386Y-129.159
X168.275Y-115.57
X168.91Y-90.043
X168.91Y-119.126
X169.037Y-95.377
X169.164Y-93.472
X169.164Y-124.587
X170.815Y-93.853
X185.928Y-91.821
X187.198Y-92.71
X189.103Y-97.409
X191.77Y-115.062
X193.04Y-93.091
X196.469Y-94.361
X198.501Y-126.619
X203.8Y-130.5
X204.724Y-100.711
X204.724Y-124.333
X206.502Y-115.697
X207.518Y-124.079
X209.677Y-124.079
X210.566Y-118.809
X211.455Y-115.951
X212.471Y-126.81
T2
X146.825Y-94.615
X148.323Y-94.615
T3
X203.867Y-84.328
X205.867Y-84.328
X207.867Y-84.328
T5
X97.79Y-95.25
X97.79Y-97.79
X97.79Y-100.33
X97.79Y-102.87
X97.79Y-105.41
X97.79Y-107.95
X97.79Y-110.49
X97.79Y-113.03
X97.79Y-115.57
X97.79Y-118.11
X100.33Y-95.25
X100.33Y-97.79
X100.33Y-100.33
X100.33Y-102.87
X100.33Y-105.41
X100.33Y-107.95
X100.33Y-110.49
X100.33Y-113.03
X100.33Y-115.57
X100.33Y-118.11
T6
X201.867Y-84.328
X209.867Y-84.328
T8
X96.52Y-86.36
X96.52Y-127.
X99.06Y-86.36
X99.06Y-127.
X101.6Y-86.36
X101.6Y-127.
X104.14Y-86.36
X104.14Y-127.
X106.68Y-86.36
X106.68Y-127.
X109.22Y-86.36
X109.22Y-127.
X111.76Y-86.36
X111.76Y-127.
X114.3Y-86.36
X114.3Y-127.
X116.84Y-86.36
X116.84Y-127.
X119.38Y-86.36
X119.38Y-127.
X121.92Y-86.36
X121.92Y-127.
X124.46Y-86.36
X124.46Y-127.
X126.238Y-105.156
X126.238Y-107.696
X126.238Y-110.236
X126.238Y-112.776
X127.Y-86.36
X127.Y-127.
X128.778Y-105.156
X128.778Y-107.696
X128.778Y-110.236
X128.778Y-112.776
X129.54Y-86.36
X129.54Y-127.
X132.08Y-86.36
X132.08Y-127.
X134.62Y-86.36
X134.62Y-127.
X137.16Y-86.36
X137.16Y-127.
X139.7Y-86.36
X139.7Y-127.
X142.24Y-86.36
X142.24Y-127.
X144.78Y-86.36
X144.78Y-127.
X147.32Y-86.36
X147.32Y-127.
X149.86Y-86.36
X149.86Y-127.
X152.4Y-86.36
X152.4Y-127.
X154.94Y-86.36
X154.94Y-127.
X157.48Y-86.36
X157.48Y-127.
X160.02Y-86.36
X160.02Y-127.
X162.56Y-86.36
X162.56Y-127.
X165.1Y-86.36
X165.1Y-127.
X167.64Y-86.36
X167.64Y-127.
X170.18Y-86.36
X170.18Y-127.
X172.72Y-86.36
X172.72Y-127.
X175.26Y-86.36
X175.26Y-127.
X177.8Y-86.36
X177.8Y-127.
X180.34Y-86.36
X180.34Y-127.
X182.88Y-86.36
X182.88Y-127.
X185.42Y-86.36
X185.42Y-127.
X187.96Y-86.36
X187.96Y-127.
X190.5Y-86.36
X190.5Y-127.
X193.04Y-86.36
X193.04Y-127.
X195.58Y-86.36
X195.58Y-127.
T9
X179.451Y-97.348
X179.451Y-117.348
T4
X216.55Y-118.775G85X215.65Y-118.775
G05
X216.55Y-128.425G85X215.65Y-128.425
G05
X219.85Y-118.775G85X218.95Y-118.775
G05
X219.85Y-128.425G85X218.95Y-128.425
G05
T7
X207.16Y-94.979G85X207.16Y-92.981
G05
X211.159Y-89.281G85X209.16Y-89.281
G05
X213.159Y-94.979G85X213.159Y-92.981
G05
T0
M30
