<?xml version="1.0" standalone="no"?>
 <!DOCTYPE svg PUBLIC "-//W3C//DTD SVG 1.1//EN" 
 "http://www.w3.org/Graphics/SVG/1.1/DTD/svg11.dtd"> 
<svg xmlns="http://www.w3.org/2000/svg" version="1.1" 
    width="29.7002cm" height="21.0007cm" viewBox="0 0 116930 82680 ">
<title>SVG Picture created as LPC1768_Stick-F_Mask.svg date 2015/07/13 14:15:15 </title>
  <desc>Picture generated by PCBNEW </desc>
<g style="fill:#000000; fill-opacity:1;stroke:#000000; stroke-opacity:1;
stroke-linecap:round; stroke-linejoin:round; "
 transform="translate(0 0) scale(1 1)">
</g>
<g style="fill:#000000; fill-opacity:0.0; 
stroke:#000000; stroke-width:118.11; stroke-opacity:1; 
stroke-linecap:round; stroke-linejoin:round;">
<path d="M84142 33714
L83976 33714
" />
<path d="M83976 33976
L83976 33476
L84214 33476
" />
<path d="M84285 34023
L84666 34023
" />
<path d="M84785 33976
L84785 33476
L84952 33833
L85119 33476
L85119 33976
" />
<path d="M85333 33833
L85571 33833
" />
<path d="M85285 33976
L85452 33476
L85619 33976
" />
<path d="M85761 33952
L85833 33976
L85952 33976
L86000 33952
L86023 33928
L86047 33880
L86047 33833
L86023 33785
L86000 33761
L85952 33738
L85857 33714
L85809 33690
L85785 33666
L85761 33619
L85761 33571
L85785 33523
L85809 33500
L85857 33476
L85976 33476
L86047 33500
" />
<path d="M86261 33976
L86261 33476
" />
<path d="M86547 33976
L86333 33690
" />
<path d="M86547 33476
L86261 33761
" />
</g>
<g style="fill:#000000; fill-opacity:0.0; 
stroke:#000000; stroke-width:39.3701; stroke-opacity:1; 
stroke-linecap:round; stroke-linejoin:round;">
<path d="M36500 32000
L86000 32000
" />
<path d="M36500 52000
L87000 52000
" />
<path d="M35000 33500
L35000 50500
" />
<path d="M35000 50500 A1500 1500 0.0 0 0 36500 52000 " />
<path d="M36500 32000 A1500 1500 0.0 0 0 35000 33500 " />
<path d="M87000 32000
L87000 33050
" />
<path d="M86000 32000
L87000 32000
" />
<path d="M87000 51000
L87000 52000
" />
<path d="M87000 51000
L87000 33000
" />
</g>
<g style="fill:#000000; fill-opacity:0.0; 
stroke:#000000; stroke-width:59.0551; stroke-opacity:1; 
stroke-linecap:round; stroke-linejoin:round;">
</g>
<g style="fill:#000000; fill-opacity:1.0; 
stroke:#000000; stroke-width:59.0551; stroke-opacity:1; 
stroke-linecap:round; stroke-linejoin:round;">
<circle cx="57805" cy="37250" r="167.472" /> 
<circle cx="58395" cy="37250" r="167.472" /> 
<polyline style="fill-rule:evenodd;"
points="84736,48450
84736,48549
84263,48549
84263,48450
84736,48450
" /> 
<polyline style="fill-rule:evenodd;"
points="84736,48194
84736,48293
84263,48293
84263,48194
84736,48194
" /> 
<polyline style="fill-rule:evenodd;"
points="84736,47938
84736,48037
84263,48037
84263,47938
84736,47938
" /> 
<polyline style="fill-rule:evenodd;"
points="84736,47683
84736,47781
84263,47781
84263,47683
84736,47683
" /> 
<polyline style="fill-rule:evenodd;"
points="84736,47427
84736,47525
84263,47525
84263,47427
84736,47427
" /> 
</g>
<g style="fill:#000000; fill-opacity:1.0; 
stroke:#000000; stroke-width:374.016; stroke-opacity:1; 
stroke-linecap:round; stroke-linejoin:round;">
</g>
<g style="fill:#000000; fill-opacity:0.0; 
stroke:#000000; stroke-width:374.016; stroke-opacity:1; 
stroke-linecap:round; stroke-linejoin:round;">
<path d="M84500 49031
L84500 48913
" />
<path d="M84500 47062
L84500 46944
" />
</g>
<g style="fill:#000000; fill-opacity:0.0; 
stroke:#000000; stroke-width:59.0551; stroke-opacity:1; 
stroke-linecap:round; stroke-linejoin:round;">
</g>
<g style="fill:#000000; fill-opacity:1.0; 
stroke:#000000; stroke-width:59.0551; stroke-opacity:1; 
stroke-linecap:round; stroke-linejoin:round;">
<polyline style="fill-rule:evenodd;"
points="85838,49218
85838,50143
85287,50143
85287,49218
85838,49218
" /> 
<polyline style="fill-rule:evenodd;"
points="85838,45872
85838,46797
85287,46797
85287,45872
85838,45872
" /> 
<polyline style="fill-rule:evenodd;"
points="48212,44638
48212,44186
48940,44186
48940,44638
48212,44638
" /> 
<polyline style="fill-rule:evenodd;"
points="48212,46410
48212,45957
48940,45957
48940,46410
48212,46410
" /> 
<polyline style="fill-rule:evenodd;"
points="45062,44638
45062,44186
45790,44186
45790,44638
45062,44638
" /> 
<polyline style="fill-rule:evenodd;"
points="45062,46410
45062,45957
45790,45957
45790,46410
45062,46410
" /> 
<polyline style="fill-rule:evenodd;"
points="45110,43662
45110,43209
45759,43209
45759,43662
45110,43662
" /> 
<polyline style="fill-rule:evenodd;"
points="45110,41890
45110,41437
45759,41437
45759,41890
45110,41890
" /> 
<polyline style="fill-rule:evenodd;"
points="48289,41890
48289,41437
48840,41437
48840,41890
48289,41890
" /> 
<polyline style="fill-rule:evenodd;"
points="48289,43662
48289,43209
48840,43209
48840,43662
48289,43662
" /> 
<polyline style="fill-rule:evenodd;"
points="48929,38587
48929,39040
48200,39040
48200,38587
48929,38587
" /> 
<polyline style="fill-rule:evenodd;"
points="48929,40359
48929,40812
48200,40812
48200,40359
48929,40359
" /> 
<polyline style="fill-rule:evenodd;"
points="45799,40359
45799,40812
45070,40812
45070,40359
45799,40359
" /> 
<polyline style="fill-rule:evenodd;"
points="45799,38587
45799,39040
45070,39040
45070,38587
45799,38587
" /> 
<polyline style="fill-rule:evenodd;"
points="48879,35187
48879,35640
48150,35640
48150,35187
48879,35187
" /> 
<polyline style="fill-rule:evenodd;"
points="48879,36959
48879,37412
48150,37412
48150,36959
48879,36959
" /> 
<polyline style="fill-rule:evenodd;"
points="45749,36959
45749,37412
45020,37412
45020,36959
45749,36959
" /> 
<polyline style="fill-rule:evenodd;"
points="45749,35187
45749,35640
45020,35640
45020,35187
45749,35187
" /> 
<circle cx="70650" cy="38326" r="403.543" /> 
<circle cx="70650" cy="46200" r="403.543" /> 
<polyline style="fill-rule:evenodd;"
points="50068,36380
49831,36380
49831,35967
50068,35967
50068,36380
" /> 
<polyline style="fill-rule:evenodd;"
points="50068,35632
49831,35632
49831,35219
50068,35219
50068,35632
" /> 
<polyline style="fill-rule:evenodd;"
points="49568,40230
49331,40230
49331,39817
49568,39817
49568,40230
" /> 
<polyline style="fill-rule:evenodd;"
points="49568,39482
49331,39482
49331,39069
49568,39069
49568,39482
" /> 
<polyline style="fill-rule:evenodd;"
points="54627,34805
54794,34972
54501,35265
54334,35098
54627,34805
" /> 
<polyline style="fill-rule:evenodd;"
points="54098,35334
54265,35501
53972,35794
53805,35627
54098,35334
" /> 
<polyline style="fill-rule:evenodd;"
points="52577,36855
52744,37022
52451,37315
52284,37148
52577,36855
" /> 
<polyline style="fill-rule:evenodd;"
points="52048,37384
52215,37551
51922,37844
51755,37677
52048,37384
" /> 
<polyline style="fill-rule:evenodd;"
points="72569,38468
72569,38231
72982,38231
72982,38468
72569,38468
" /> 
<polyline style="fill-rule:evenodd;"
points="73317,38468
73317,38231
73730,38231
73730,38468
73317,38468
" /> 
<polyline style="fill-rule:evenodd;"
points="54977,39055
55144,39222
54851,39515
54684,39348
54977,39055
" /> 
<polyline style="fill-rule:evenodd;"
points="54448,39584
54615,39751
54322,40044
54155,39877
54448,39584
" /> 
<polyline style="fill-rule:evenodd;"
points="63331,36569
63568,36569
63568,36982
63331,36982
63331,36569
" /> 
<polyline style="fill-rule:evenodd;"
points="63331,37317
63568,37317
63568,37730
63331,37730
63331,37317
" /> 
<polyline style="fill-rule:evenodd;"
points="63981,36569
64218,36569
64218,36982
63981,36982
63981,36569
" /> 
<polyline style="fill-rule:evenodd;"
points="63981,37317
64218,37317
64218,37730
63981,37730
63981,37317
" /> 
<polyline style="fill-rule:evenodd;"
points="65794,44077
65627,44244
65334,43951
65501,43784
65794,44077
" /> 
<polyline style="fill-rule:evenodd;"
points="65265,43548
65098,43715
64805,43422
64972,43255
65265,43548
" /> 
<polyline style="fill-rule:evenodd;"
points="58330,46281
58330,46518
57917,46518
57917,46281
58330,46281
" /> 
<polyline style="fill-rule:evenodd;"
points="57582,46281
57582,46518
57169,46518
57169,46281
57582,46281
" /> 
<polyline style="fill-rule:evenodd;"
points="62331,45419
62568,45419
62568,45832
62331,45832
62331,45419
" /> 
<polyline style="fill-rule:evenodd;"
points="62331,46167
62568,46167
62568,46580
62331,46580
62331,46167
" /> 
<polyline style="fill-rule:evenodd;"
points="64181,34969
64418,34969
64418,35382
64181,35382
64181,34969
" /> 
<polyline style="fill-rule:evenodd;"
points="64181,35717
64418,35717
64418,36130
64181,36130
64181,35717
" /> 
<polyline style="fill-rule:evenodd;"
points="63331,34969
63568,34969
63568,35382
63331,35382
63331,34969
" /> 
<polyline style="fill-rule:evenodd;"
points="63331,35717
63568,35717
63568,36130
63331,36130
63331,35717
" /> 
<polyline style="fill-rule:evenodd;"
points="54002,42930
54169,43097
53876,43390
53709,43223
54002,42930
" /> 
<polyline style="fill-rule:evenodd;"
points="53473,43459
53640,43626
53347,43919
53180,43752
53473,43459
" /> 
<polyline style="fill-rule:evenodd;"
points="64577,39455
64744,39622
64451,39915
64284,39748
64577,39455
" /> 
<polyline style="fill-rule:evenodd;"
points="64048,39984
64215,40151
63922,40444
63755,40277
64048,39984
" /> 
<polyline style="fill-rule:evenodd;"
points="83519,50518
83519,50281
83932,50281
83932,50518
83519,50518
" /> 
<polyline style="fill-rule:evenodd;"
points="84267,50518
84267,50281
84680,50281
84680,50518
84267,50518
" /> 
<polyline style="fill-rule:evenodd;"
points="83379,40357
83379,41242
82060,41242
82060,40357
83379,40357
" /> 
<polyline style="fill-rule:evenodd;"
points="85939,40357
85939,41242
84620,41242
84620,40357
85939,40357
" /> 
<polyline style="fill-rule:evenodd;"
points="83379,43957
83379,44842
82060,44842
82060,43957
83379,43957
" /> 
<polyline style="fill-rule:evenodd;"
points="85939,43957
85939,44842
84620,44842
84620,43957
85939,43957
" /> 
<polyline style="fill-rule:evenodd;"
points="82218,36340
82218,37659
80899,37659
80899,36340
82218,36340
" /> 
<polyline style="fill-rule:evenodd;"
points="84580,36340
84580,37659
83261,37659
83261,36340
84580,36340
" /> 
<polyline style="fill-rule:evenodd;"
points="83399,34490
83399,35809
82080,35809
82080,34490
83399,34490
" /> 
<polyline style="fill-rule:evenodd;"
points="43272,36627
43527,36627
43527,36882
43272,36882
43272,36627
" /> 
<polyline style="fill-rule:evenodd;"
points="43272,37217
43527,37217
43527,37472
43272,37472
43272,37217
" /> 
<polyline style="fill-rule:evenodd;"
points="51741,49338
51561,49158
51741,48978
51921,49158
51741,49338
" /> 
<polyline style="fill-rule:evenodd;"
points="52158,48921
51978,48741
52158,48561
52338,48741
52158,48921
" /> 
<polyline style="fill-rule:evenodd;"
points="50741,49238
50561,49058
50741,48878
50921,49058
50741,49238
" /> 
<polyline style="fill-rule:evenodd;"
points="51158,48821
50978,48641
51158,48461
51338,48641
51158,48821
" /> 
<polyline style="fill-rule:evenodd;"
points="49641,49238
49461,49058
49641,48878
49821,49058
49641,49238
" /> 
<polyline style="fill-rule:evenodd;"
points="50058,48821
49878,48641
50058,48461
50238,48641
50058,48821
" /> 
<polyline style="fill-rule:evenodd;"
points="48441,49188
48261,49008
48441,48828
48621,49008
48441,49188
" /> 
<polyline style="fill-rule:evenodd;"
points="48858,48771
48678,48591
48858,48411
49038,48591
48858,48771
" /> 
<polyline style="fill-rule:evenodd;"
points="79693,42175
79693,42824
78374,42824
78374,42175
79693,42175
" /> 
<polyline style="fill-rule:evenodd;"
points="77725,42175
77725,42824
76406,42824
76406,42175
77725,42175
" /> 
<polyline style="fill-rule:evenodd;"
points="81022,49427
81277,49427
81277,49682
81022,49682
81022,49427
" /> 
<polyline style="fill-rule:evenodd;"
points="81022,50017
81277,50017
81277,50272
81022,50272
81022,50017
" /> 
<polyline style="fill-rule:evenodd;"
points="77070,46090
76329,46090
76329,44709
77070,44709
77070,46090
" /> 
<polyline style="fill-rule:evenodd;"
points="79670,45570
78929,45570
78929,45229
79670,45229
79670,45570
" /> 
<polyline style="fill-rule:evenodd;"
points="79670,44670
78929,44670
78929,44329
79670,44329
79670,44670
" /> 
<polyline style="fill-rule:evenodd;"
points="79670,46470
78929,46470
78929,46129
79670,46129
79670,46470
" /> 
<polyline style="fill-rule:evenodd;"
points="76920,40240
76179,40240
76179,38859
76920,38859
76920,40240
" /> 
<polyline style="fill-rule:evenodd;"
points="79520,39720
78779,39720
78779,39379
79520,39379
79520,39720
" /> 
<polyline style="fill-rule:evenodd;"
points="79520,38820
78779,38820
78779,38479
79520,38479
79520,38820
" /> 
<polyline style="fill-rule:evenodd;"
points="79520,40620
78779,40620
78779,40279
79520,40279
79520,40620
" /> 
<polyline style="fill-rule:evenodd;"
points="64780,36956
64780,36543
65193,36543
65193,36956
64780,36956
" /> 
<polyline style="fill-rule:evenodd;"
points="65606,36956
65606,36543
66019,36543
66019,36956
65606,36956
" /> 
<polyline style="fill-rule:evenodd;"
points="64780,37756
64780,37343
65193,37343
65193,37756
64780,37756
" /> 
<polyline style="fill-rule:evenodd;"
points="65606,37756
65606,37343
66019,37343
66019,37756
65606,37756
" /> 
<polyline style="fill-rule:evenodd;"
points="64780,35356
64780,34943
65193,34943
65193,35356
64780,35356
" /> 
<polyline style="fill-rule:evenodd;"
points="65606,35356
65606,34943
66019,34943
66019,35356
65606,35356
" /> 
<polyline style="fill-rule:evenodd;"
points="64780,36156
64780,35743
65193,35743
65193,36156
64780,36156
" /> 
<polyline style="fill-rule:evenodd;"
points="65606,36156
65606,35743
66019,35743
66019,36156
65606,36156
" /> 
<polyline style="fill-rule:evenodd;"
points="76689,33629
77310,33629
77310,34370
76689,34370
76689,33629
" /> 
</g>
<g style="fill:#000000; fill-opacity:1.0; 
stroke:#000000; stroke-width:680; stroke-opacity:1; 
stroke-linecap:round; stroke-linejoin:round;">
</g>
<g style="fill:#000000; fill-opacity:0.0; 
stroke:#000000; stroke-width:680; stroke-opacity:1; 
stroke-linecap:round; stroke-linejoin:round;">
<path d="M76000 33940
L76000 34060
" />
<path d="M75000 33940
L75000 34060
" />
<path d="M74000 33940
L74000 34060
" />
<path d="M73000 33940
L73000 34060
" />
<path d="M72000 33940
L72000 34060
" />
<path d="M71000 33940
L71000 34060
" />
<path d="M70000 33940
L70000 34060
" />
<path d="M69000 33940
L69000 34060
" />
<path d="M68000 33940
L68000 34060
" />
<path d="M67000 33940
L67000 34060
" />
<path d="M66000 33940
L66000 34060
" />
<path d="M65000 33940
L65000 34060
" />
<path d="M64000 33940
L64000 34060
" />
<path d="M63000 33940
L63000 34060
" />
<path d="M62000 33940
L62000 34060
" />
<path d="M61000 33940
L61000 34060
" />
<path d="M60000 33940
L60000 34060
" />
<path d="M59000 33940
L59000 34060
" />
<path d="M58000 33940
L58000 34060
" />
<path d="M57000 33940
L57000 34060
" />
<path d="M56000 33940
L56000 34060
" />
<path d="M55000 33940
L55000 34060
" />
<path d="M54000 33940
L54000 34060
" />
<path d="M53000 33940
L53000 34060
" />
<path d="M52000 33940
L52000 34060
" />
<path d="M51000 33940
L51000 34060
" />
<path d="M50000 33940
L50000 34060
" />
<path d="M49000 33940
L49000 34060
" />
<path d="M48000 33940
L48000 34060
" />
<path d="M47000 33940
L47000 34060
" />
<path d="M46000 33940
L46000 34060
" />
<path d="M45000 33940
L45000 34060
" />
<path d="M44000 33940
L44000 34060
" />
<path d="M43000 33940
L43000 34060
" />
<path d="M42000 33940
L42000 34060
" />
<path d="M41000 33940
L41000 34060
" />
<path d="M40000 33940
L40000 34060
" />
<path d="M39000 33940
L39000 34060
" />
<path d="M38000 33940
L38000 34060
" />
</g>
<g style="fill:#000000; fill-opacity:0.0; 
stroke:#000000; stroke-width:59.0551; stroke-opacity:1; 
stroke-linecap:round; stroke-linejoin:round;">
</g>
<g style="fill:#000000; fill-opacity:1.0; 
stroke:#000000; stroke-width:59.0551; stroke-opacity:1; 
stroke-linecap:round; stroke-linejoin:round;">
<circle cx="39500" cy="46500" r="324.803" /> 
<circle cx="38500" cy="46500" r="324.803" /> 
<circle cx="39500" cy="45500" r="324.803" /> 
<circle cx="38500" cy="45500" r="324.803" /> 
<circle cx="39500" cy="44500" r="324.803" /> 
<circle cx="38500" cy="44500" r="324.803" /> 
<circle cx="39500" cy="43500" r="324.803" /> 
<circle cx="38500" cy="43500" r="324.803" /> 
<circle cx="39500" cy="42500" r="285.433" /> 
<circle cx="38500" cy="42500" r="324.803" /> 
<circle cx="39500" cy="41500" r="285.433" /> 
<circle cx="38500" cy="41500" r="324.803" /> 
<circle cx="39500" cy="40500" r="324.803" /> 
<circle cx="38500" cy="40500" r="324.803" /> 
<circle cx="39500" cy="39500" r="324.803" /> 
<circle cx="38500" cy="39500" r="324.803" /> 
<circle cx="39500" cy="38500" r="324.803" /> 
<circle cx="38500" cy="38500" r="324.803" /> 
<circle cx="39500" cy="37500" r="324.803" /> 
<circle cx="38500" cy="37500" r="324.803" /> 
<polyline style="fill-rule:evenodd;"
points="76689,49629
77310,49629
77310,50370
76689,50370
76689,49629
" /> 
</g>
<g style="fill:#000000; fill-opacity:1.0; 
stroke:#000000; stroke-width:680; stroke-opacity:1; 
stroke-linecap:round; stroke-linejoin:round;">
</g>
<g style="fill:#000000; fill-opacity:0.0; 
stroke:#000000; stroke-width:680; stroke-opacity:1; 
stroke-linecap:round; stroke-linejoin:round;">
<path d="M76000 49940
L76000 50060
" />
<path d="M75000 49940
L75000 50060
" />
<path d="M74000 49940
L74000 50060
" />
<path d="M73000 49940
L73000 50060
" />
<path d="M72000 49940
L72000 50060
" />
<path d="M71000 49940
L71000 50060
" />
<path d="M70000 49940
L70000 50060
" />
<path d="M69000 49940
L69000 50060
" />
<path d="M68000 49940
L68000 50060
" />
<path d="M67000 49940
L67000 50060
" />
<path d="M66000 49940
L66000 50060
" />
<path d="M65000 49940
L65000 50060
" />
<path d="M64000 49940
L64000 50060
" />
<path d="M63000 49940
L63000 50060
" />
<path d="M62000 49940
L62000 50060
" />
<path d="M61000 49940
L61000 50060
" />
<path d="M60000 49940
L60000 50060
" />
<path d="M59000 49940
L59000 50060
" />
<path d="M58000 49940
L58000 50060
" />
<path d="M57000 49940
L57000 50060
" />
<path d="M56000 49940
L56000 50060
" />
<path d="M55000 49940
L55000 50060
" />
<path d="M54000 49940
L54000 50060
" />
<path d="M53000 49940
L53000 50060
" />
<path d="M52000 49940
L52000 50060
" />
<path d="M51000 49940
L51000 50060
" />
<path d="M50000 49940
L50000 50060
" />
<path d="M49000 49940
L49000 50060
" />
<path d="M48000 49940
L48000 50060
" />
<path d="M47000 49940
L47000 50060
" />
<path d="M46000 49940
L46000 50060
" />
<path d="M45000 49940
L45000 50060
" />
<path d="M44000 49940
L44000 50060
" />
<path d="M43000 49940
L43000 50060
" />
<path d="M42000 49940
L42000 50060
" />
<path d="M41000 49940
L41000 50060
" />
<path d="M40000 49940
L40000 50060
" />
<path d="M39000 49940
L39000 50060
" />
<path d="M38000 49940
L38000 50060
" />
</g>
<g style="fill:#000000; fill-opacity:0.0; 
stroke:#000000; stroke-width:59.0551; stroke-opacity:1; 
stroke-linecap:round; stroke-linejoin:round;">
</g>
<g style="fill:#000000; fill-opacity:1.0; 
stroke:#000000; stroke-width:59.0551; stroke-opacity:1; 
stroke-linecap:round; stroke-linejoin:round;">
<polyline style="fill-rule:evenodd;"
points="51010,44089
51010,44710
50389,44710
50389,44089
51010,44089
" /> 
</g>
<g style="fill:#000000; fill-opacity:1.0; 
stroke:#000000; stroke-width:680; stroke-opacity:1; 
stroke-linecap:round; stroke-linejoin:round;">
</g>
<g style="fill:#000000; fill-opacity:0.0; 
stroke:#000000; stroke-width:680; stroke-opacity:1; 
stroke-linecap:round; stroke-linejoin:round;">
<path d="M49700 44400
L49700 44400
" />
<path d="M50700 43400
L50700 43400
" />
<path d="M49700 43400
L49700 43400
" />
<path d="M50700 42400
L50700 42400
" />
<path d="M49700 42400
L49700 42400
" />
<path d="M50700 41400
L50700 41400
" />
<path d="M49700 41400
L49700 41400
" />
</g>
<g style="fill:#000000; fill-opacity:0.0; 
stroke:#000000; stroke-width:59.0551; stroke-opacity:1; 
stroke-linecap:round; stroke-linejoin:round;">
</g>
<g style="fill:#000000; fill-opacity:1.0; 
stroke:#000000; stroke-width:59.0551; stroke-opacity:1; 
stroke-linecap:round; stroke-linejoin:round;">
<polyline style="fill-rule:evenodd;"
points="79448,49671
79448,49416
79703,49416
79703,49671
79448,49671
" /> 
<polyline style="fill-rule:evenodd;"
points="80196,49671
80196,49416
80451,49416
80451,49671
80196,49671
" /> 
<polyline style="fill-rule:evenodd;"
points="79822,48884
79822,48629
80077,48629
80077,48884
79822,48884
" /> 
<polyline style="fill-rule:evenodd;"
points="44447,37539
44152,37539
44152,37126
44447,37126
44447,37539
" /> 
<polyline style="fill-rule:evenodd;"
points="44447,36673
44152,36673
44152,36260
44447,36260
44447,36673
" /> 
<polyline style="fill-rule:evenodd;"
points="44489,35502
44489,35797
44076,35797
44076,35502
44489,35502
" /> 
<polyline style="fill-rule:evenodd;"
points="43623,35502
43623,35797
43210,35797
43210,35502
43623,35502
" /> 
<polyline style="fill-rule:evenodd;"
points="41152,45360
41447,45360
41447,45773
41152,45773
41152,45360
" /> 
<polyline style="fill-rule:evenodd;"
points="41152,46226
41447,46226
41447,46639
41152,46639
41152,46226
" /> 
<polyline style="fill-rule:evenodd;"
points="41060,44447
41060,44152
41473,44152
41473,44447
41060,44447
" /> 
<polyline style="fill-rule:evenodd;"
points="41926,44447
41926,44152
42339,44152
42339,44447
41926,44447
" /> 
<polyline style="fill-rule:evenodd;"
points="41060,43447
41060,43152
41473,43152
41473,43447
41060,43447
" /> 
<polyline style="fill-rule:evenodd;"
points="41926,43447
41926,43152
42339,43152
42339,43447
41926,43447
" /> 
<polyline style="fill-rule:evenodd;"
points="41060,42497
41060,42202
41473,42202
41473,42497
41060,42497
" /> 
<polyline style="fill-rule:evenodd;"
points="41926,42497
41926,42202
42339,42202
42339,42497
41926,42497
" /> 
<polyline style="fill-rule:evenodd;"
points="41060,41497
41060,41202
41473,41202
41473,41497
41060,41497
" /> 
<polyline style="fill-rule:evenodd;"
points="41926,41497
41926,41202
42339,41202
42339,41497
41926,41497
" /> 
<polyline style="fill-rule:evenodd;"
points="41060,40647
41060,40352
41473,40352
41473,40647
41060,40647
" /> 
<polyline style="fill-rule:evenodd;"
points="41926,40647
41926,40352
42339,40352
42339,40647
41926,40647
" /> 
<polyline style="fill-rule:evenodd;"
points="41060,38647
41060,38352
41473,38352
41473,38647
41060,38647
" /> 
<polyline style="fill-rule:evenodd;"
points="41926,38647
41926,38352
42339,38352
42339,38647
41926,38647
" /> 
<polyline style="fill-rule:evenodd;"
points="41060,37647
41060,37352
41473,37352
41473,37647
41060,37647
" /> 
<polyline style="fill-rule:evenodd;"
points="41926,37647
41926,37352
42339,37352
42339,37647
41926,37647
" /> 
<polyline style="fill-rule:evenodd;"
points="47639,37802
47639,38097
47226,38097
47226,37802
47639,37802
" /> 
<polyline style="fill-rule:evenodd;"
points="46773,37802
46773,38097
46360,38097
46360,37802
46773,37802
" /> 
<polyline style="fill-rule:evenodd;"
points="51852,34910
52147,34910
52147,35323
51852,35323
51852,34910
" /> 
<polyline style="fill-rule:evenodd;"
points="51852,35776
52147,35776
52147,36189
51852,36189
51852,35776
" /> 
<polyline style="fill-rule:evenodd;"
points="52852,34860
53147,34860
53147,35273
52852,35273
52852,34860
" /> 
<polyline style="fill-rule:evenodd;"
points="52852,35726
53147,35726
53147,36139
52852,36139
52852,35726
" /> 
<polyline style="fill-rule:evenodd;"
points="60402,34860
60697,34860
60697,35273
60402,35273
60402,34860
" /> 
<polyline style="fill-rule:evenodd;"
points="60402,35726
60697,35726
60697,36139
60402,36139
60402,35726
" /> 
<polyline style="fill-rule:evenodd;"
points="61302,34810
61597,34810
61597,35223
61302,35223
61302,34810
" /> 
<polyline style="fill-rule:evenodd;"
points="61302,35676
61597,35676
61597,36089
61302,36089
61302,35676
" /> 
<polyline style="fill-rule:evenodd;"
points="67352,35110
67647,35110
67647,35523
67352,35523
67352,35110
" /> 
<polyline style="fill-rule:evenodd;"
points="67352,35976
67647,35976
67647,36389
67352,36389
67352,35976
" /> 
<polyline style="fill-rule:evenodd;"
points="68152,35110
68447,35110
68447,35523
68152,35523
68152,35110
" /> 
<polyline style="fill-rule:evenodd;"
points="68152,35976
68447,35976
68447,36389
68152,36389
68152,35976
" /> 
<polyline style="fill-rule:evenodd;"
points="77160,35847
77160,35552
77573,35552
77573,35847
77160,35847
" /> 
<polyline style="fill-rule:evenodd;"
points="78026,35847
78026,35552
78439,35552
78439,35847
78026,35847
" /> 
<polyline style="fill-rule:evenodd;"
points="83239,49252
83239,49547
82826,49547
82826,49252
83239,49252
" /> 
<polyline style="fill-rule:evenodd;"
points="82373,49252
82373,49547
81960,49547
81960,49252
82373,49252
" /> 
<polyline style="fill-rule:evenodd;"
points="78152,33760
78447,33760
78447,34173
78152,34173
78152,33760
" /> 
<polyline style="fill-rule:evenodd;"
points="78152,34626
78447,34626
78447,35039
78152,35039
78152,34626
" /> 
<polyline style="fill-rule:evenodd;"
points="81960,48397
81960,48102
82373,48102
82373,48397
81960,48397
" /> 
<polyline style="fill-rule:evenodd;"
points="82826,48397
82826,48102
83239,48102
83239,48397
82826,48397
" /> 
<polyline style="fill-rule:evenodd;"
points="81960,47597
81960,47302
82373,47302
82373,47597
81960,47597
" /> 
<polyline style="fill-rule:evenodd;"
points="82826,47597
82826,47302
83239,47302
83239,47597
82826,47597
" /> 
<polyline style="fill-rule:evenodd;"
points="50839,45602
50839,45897
50426,45897
50426,45602
50839,45602
" /> 
<polyline style="fill-rule:evenodd;"
points="49973,45602
49973,45897
49560,45897
49560,45602
49973,45602
" /> 
<polyline style="fill-rule:evenodd;"
points="81052,47210
81347,47210
81347,47623
81052,47623
81052,47210
" /> 
<polyline style="fill-rule:evenodd;"
points="81052,48076
81347,48076
81347,48489
81052,48489
81052,48076
" /> 
<polyline style="fill-rule:evenodd;"
points="83039,50202
83039,50497
82626,50497
82626,50202
83039,50202
" /> 
<polyline style="fill-rule:evenodd;"
points="82173,50202
82173,50497
81760,50497
81760,50202
82173,50202
" /> 
<polyline style="fill-rule:evenodd;"
points="44797,43189
44502,43189
44502,42776
44797,42776
44797,43189
" /> 
<polyline style="fill-rule:evenodd;"
points="44797,42323
44502,42323
44502,41910
44797,41910
44797,42323
" /> 
<polyline style="fill-rule:evenodd;"
points="79260,48097
79260,47802
79673,47802
79673,48097
79260,48097
" /> 
<polyline style="fill-rule:evenodd;"
points="80126,48097
80126,47802
80539,47802
80539,48097
80126,48097
" /> 
<polyline style="fill-rule:evenodd;"
points="80489,50202
80489,50497
80076,50497
80076,50202
80489,50202
" /> 
<polyline style="fill-rule:evenodd;"
points="79623,50202
79623,50497
79210,50497
79210,50202
79623,50202
" /> 
<polyline style="fill-rule:evenodd;"
points="78010,36897
78010,36602
78423,36602
78423,36897
78010,36897
" /> 
<polyline style="fill-rule:evenodd;"
points="78876,36897
78876,36602
79289,36602
79289,36897
78876,36897
" /> 
<circle cx="81837.4" cy="33200" r="285.433" /> 
<circle cx="81050" cy="33200" r="285.433" /> 
<circle cx="80262.6" cy="33200" r="285.433" /> 
<circle cx="79475.2" cy="33200" r="324.803" /> 
<circle cx="82624.8" cy="33200" r="324.803" /> 
<polyline style="fill-rule:evenodd;"
points="61236,38824
61287,38824
61287,39355
61236,39355
61236,38824
" /> 
<polyline style="fill-rule:evenodd;"
points="61039,38824
61090,38824
61090,39355
61039,39355
61039,38824
" /> 
<polyline style="fill-rule:evenodd;"
points="60842,38824
60894,38824
60894,39355
60842,39355
60842,38824
" /> 
<polyline style="fill-rule:evenodd;"
points="60646,38824
60697,38824
60697,39355
60646,39355
60646,38824
" /> 
<polyline style="fill-rule:evenodd;"
points="60449,38824
60500,38824
60500,39355
60449,39355
60449,38824
" /> 
<polyline style="fill-rule:evenodd;"
points="60252,38824
60303,38824
60303,39355
60252,39355
60252,38824
" /> 
<polyline style="fill-rule:evenodd;"
points="60055,38824
60106,38824
60106,39355
60055,39355
60055,38824
" /> 
<polyline style="fill-rule:evenodd;"
points="59858,38824
59909,38824
59909,39355
59858,39355
59858,38824
" /> 
<polyline style="fill-rule:evenodd;"
points="59661,38824
59712,38824
59712,39355
59661,39355
59661,38824
" /> 
<polyline style="fill-rule:evenodd;"
points="59464,38824
59516,38824
59516,39355
59464,39355
59464,38824
" /> 
<polyline style="fill-rule:evenodd;"
points="59268,38824
59319,38824
59319,39355
59268,39355
59268,38824
" /> 
<polyline style="fill-rule:evenodd;"
points="59071,38824
59122,38824
59122,39355
59071,39355
59071,38824
" /> 
<polyline style="fill-rule:evenodd;"
points="58874,38824
58925,38824
58925,39355
58874,39355
58874,38824
" /> 
<polyline style="fill-rule:evenodd;"
points="58677,38824
58728,38824
58728,39355
58677,39355
58677,38824
" /> 
<polyline style="fill-rule:evenodd;"
points="58480,38824
58531,38824
58531,39355
58480,39355
58480,38824
" /> 
<polyline style="fill-rule:evenodd;"
points="58283,38824
58335,38824
58335,39355
58283,39355
58283,38824
" /> 
<polyline style="fill-rule:evenodd;"
points="58087,38824
58138,38824
58138,39355
58087,39355
58087,38824
" /> 
<polyline style="fill-rule:evenodd;"
points="57890,38824
57941,38824
57941,39355
57890,39355
57890,38824
" /> 
<polyline style="fill-rule:evenodd;"
points="57693,38824
57744,38824
57744,39355
57693,39355
57693,38824
" /> 
<polyline style="fill-rule:evenodd;"
points="57496,38824
57547,38824
57547,39355
57496,39355
57496,38824
" /> 
<polyline style="fill-rule:evenodd;"
points="57299,38824
57350,38824
57350,39355
57299,39355
57299,38824
" /> 
<polyline style="fill-rule:evenodd;"
points="57102,38824
57153,38824
57153,39355
57102,39355
57102,38824
" /> 
<polyline style="fill-rule:evenodd;"
points="56905,38824
56957,38824
56957,39355
56905,39355
56905,38824
" /> 
<polyline style="fill-rule:evenodd;"
points="56709,38824
56760,38824
56760,39355
56709,39355
56709,38824
" /> 
<polyline style="fill-rule:evenodd;"
points="56512,38824
56563,38824
56563,39355
56512,39355
56512,38824
" /> 
<polyline style="fill-rule:evenodd;"
points="55524,39863
55524,39812
56055,39812
56055,39863
55524,39863
" /> 
<polyline style="fill-rule:evenodd;"
points="55524,40060
55524,40009
56055,40009
56055,40060
55524,40060
" /> 
<polyline style="fill-rule:evenodd;"
points="55524,40257
55524,40205
56055,40205
56055,40257
55524,40257
" /> 
<polyline style="fill-rule:evenodd;"
points="55524,40453
55524,40402
56055,40402
56055,40453
55524,40453
" /> 
<polyline style="fill-rule:evenodd;"
points="55524,40650
55524,40599
56055,40599
56055,40650
55524,40650
" /> 
<polyline style="fill-rule:evenodd;"
points="55524,40847
55524,40796
56055,40796
56055,40847
55524,40847
" /> 
<polyline style="fill-rule:evenodd;"
points="55524,41044
55524,40993
56055,40993
56055,41044
55524,41044
" /> 
<polyline style="fill-rule:evenodd;"
points="55524,41241
55524,41190
56055,41190
56055,41241
55524,41241
" /> 
<polyline style="fill-rule:evenodd;"
points="55524,41438
55524,41387
56055,41387
56055,41438
55524,41438
" /> 
<polyline style="fill-rule:evenodd;"
points="55524,41635
55524,41583
56055,41583
56055,41635
55524,41635
" /> 
<polyline style="fill-rule:evenodd;"
points="55524,41831
55524,41780
56055,41780
56055,41831
55524,41831
" /> 
<polyline style="fill-rule:evenodd;"
points="55524,42028
55524,41977
56055,41977
56055,42028
55524,42028
" /> 
<polyline style="fill-rule:evenodd;"
points="55524,42225
55524,42174
56055,42174
56055,42225
55524,42225
" /> 
<polyline style="fill-rule:evenodd;"
points="55524,42422
55524,42371
56055,42371
56055,42422
55524,42422
" /> 
<polyline style="fill-rule:evenodd;"
points="55524,42619
55524,42568
56055,42568
56055,42619
55524,42619
" /> 
<polyline style="fill-rule:evenodd;"
points="55524,42816
55524,42764
56055,42764
56055,42816
55524,42816
" /> 
<polyline style="fill-rule:evenodd;"
points="55524,43012
55524,42961
56055,42961
56055,43012
55524,43012
" /> 
<polyline style="fill-rule:evenodd;"
points="55524,43209
55524,43158
56055,43158
56055,43209
55524,43209
" /> 
<polyline style="fill-rule:evenodd;"
points="55524,43406
55524,43355
56055,43355
56055,43406
55524,43406
" /> 
<polyline style="fill-rule:evenodd;"
points="55524,43603
55524,43552
56055,43552
56055,43603
55524,43603
" /> 
<polyline style="fill-rule:evenodd;"
points="55524,43800
55524,43749
56055,43749
56055,43800
55524,43800
" /> 
<polyline style="fill-rule:evenodd;"
points="55524,43997
55524,43946
56055,43946
56055,43997
55524,43997
" /> 
<polyline style="fill-rule:evenodd;"
points="55524,44194
55524,44142
56055,44142
56055,44194
55524,44194
" /> 
<polyline style="fill-rule:evenodd;"
points="55524,44390
55524,44339
56055,44339
56055,44390
55524,44390
" /> 
<polyline style="fill-rule:evenodd;"
points="55524,44587
55524,44536
56055,44536
56055,44587
55524,44587
" /> 
<polyline style="fill-rule:evenodd;"
points="56512,45044
56563,45044
56563,45575
56512,45575
56512,45044
" /> 
<polyline style="fill-rule:evenodd;"
points="56709,45044
56760,45044
56760,45575
56709,45575
56709,45044
" /> 
<polyline style="fill-rule:evenodd;"
points="56905,45044
56957,45044
56957,45575
56905,45575
56905,45044
" /> 
<polyline style="fill-rule:evenodd;"
points="57102,45044
57153,45044
57153,45575
57102,45575
57102,45044
" /> 
<polyline style="fill-rule:evenodd;"
points="57299,45044
57350,45044
57350,45575
57299,45575
57299,45044
" /> 
<polyline style="fill-rule:evenodd;"
points="57496,45044
57547,45044
57547,45575
57496,45575
57496,45044
" /> 
<polyline style="fill-rule:evenodd;"
points="57693,45044
57744,45044
57744,45575
57693,45575
57693,45044
" /> 
<polyline style="fill-rule:evenodd;"
points="57890,45044
57941,45044
57941,45575
57890,45575
57890,45044
" /> 
<polyline style="fill-rule:evenodd;"
points="58087,45044
58138,45044
58138,45575
58087,45575
58087,45044
" /> 
<polyline style="fill-rule:evenodd;"
points="58283,45044
58335,45044
58335,45575
58283,45575
58283,45044
" /> 
<polyline style="fill-rule:evenodd;"
points="58480,45044
58531,45044
58531,45575
58480,45575
58480,45044
" /> 
<polyline style="fill-rule:evenodd;"
points="58677,45044
58728,45044
58728,45575
58677,45575
58677,45044
" /> 
<polyline style="fill-rule:evenodd;"
points="58874,45044
58925,45044
58925,45575
58874,45575
58874,45044
" /> 
<polyline style="fill-rule:evenodd;"
points="59071,45044
59122,45044
59122,45575
59071,45575
59071,45044
" /> 
<polyline style="fill-rule:evenodd;"
points="59268,45044
59319,45044
59319,45575
59268,45575
59268,45044
" /> 
<polyline style="fill-rule:evenodd;"
points="59464,45044
59516,45044
59516,45575
59464,45575
59464,45044
" /> 
<polyline style="fill-rule:evenodd;"
points="59661,45044
59712,45044
59712,45575
59661,45575
59661,45044
" /> 
<polyline style="fill-rule:evenodd;"
points="59858,45044
59909,45044
59909,45575
59858,45575
59858,45044
" /> 
<polyline style="fill-rule:evenodd;"
points="60055,45044
60106,45044
60106,45575
60055,45575
60055,45044
" /> 
<polyline style="fill-rule:evenodd;"
points="60252,45044
60303,45044
60303,45575
60252,45575
60252,45044
" /> 
<polyline style="fill-rule:evenodd;"
points="60449,45044
60500,45044
60500,45575
60449,45575
60449,45044
" /> 
<polyline style="fill-rule:evenodd;"
points="60646,45044
60697,45044
60697,45575
60646,45575
60646,45044
" /> 
<polyline style="fill-rule:evenodd;"
points="60842,45044
60894,45044
60894,45575
60842,45575
60842,45044
" /> 
<polyline style="fill-rule:evenodd;"
points="61039,45044
61090,45044
61090,45575
61039,45575
61039,45044
" /> 
<polyline style="fill-rule:evenodd;"
points="61236,45044
61287,45044
61287,45575
61236,45575
61236,45044
" /> 
<polyline style="fill-rule:evenodd;"
points="61744,44587
61744,44536
62275,44536
62275,44587
61744,44587
" /> 
<polyline style="fill-rule:evenodd;"
points="61744,44390
61744,44339
62275,44339
62275,44390
61744,44390
" /> 
<polyline style="fill-rule:evenodd;"
points="61744,44194
61744,44142
62275,44142
62275,44194
61744,44194
" /> 
<polyline style="fill-rule:evenodd;"
points="61744,43997
61744,43946
62275,43946
62275,43997
61744,43997
" /> 
<polyline style="fill-rule:evenodd;"
points="61744,43800
61744,43749
62275,43749
62275,43800
61744,43800
" /> 
<polyline style="fill-rule:evenodd;"
points="61744,43603
61744,43552
62275,43552
62275,43603
61744,43603
" /> 
<polyline style="fill-rule:evenodd;"
points="61744,43406
61744,43355
62275,43355
62275,43406
61744,43406
" /> 
<polyline style="fill-rule:evenodd;"
points="61744,43209
61744,43158
62275,43158
62275,43209
61744,43209
" /> 
<polyline style="fill-rule:evenodd;"
points="61744,43012
61744,42961
62275,42961
62275,43012
61744,43012
" /> 
<polyline style="fill-rule:evenodd;"
points="61744,42816
61744,42764
62275,42764
62275,42816
61744,42816
" /> 
<polyline style="fill-rule:evenodd;"
points="61744,42619
61744,42568
62275,42568
62275,42619
61744,42619
" /> 
<polyline style="fill-rule:evenodd;"
points="61744,42422
61744,42371
62275,42371
62275,42422
61744,42422
" /> 
<polyline style="fill-rule:evenodd;"
points="61744,42225
61744,42174
62275,42174
62275,42225
61744,42225
" /> 
<polyline style="fill-rule:evenodd;"
points="61744,42028
61744,41977
62275,41977
62275,42028
61744,42028
" /> 
<polyline style="fill-rule:evenodd;"
points="61744,41831
61744,41780
62275,41780
62275,41831
61744,41831
" /> 
<polyline style="fill-rule:evenodd;"
points="61744,41635
61744,41583
62275,41583
62275,41635
61744,41635
" /> 
<polyline style="fill-rule:evenodd;"
points="61744,41438
61744,41387
62275,41387
62275,41438
61744,41438
" /> 
<polyline style="fill-rule:evenodd;"
points="61744,41241
61744,41190
62275,41190
62275,41241
61744,41241
" /> 
<polyline style="fill-rule:evenodd;"
points="61744,41044
61744,40993
62275,40993
62275,41044
61744,41044
" /> 
<polyline style="fill-rule:evenodd;"
points="61744,40847
61744,40796
62275,40796
62275,40847
61744,40847
" /> 
<polyline style="fill-rule:evenodd;"
points="61744,40650
61744,40599
62275,40599
62275,40650
61744,40650
" /> 
<polyline style="fill-rule:evenodd;"
points="61744,40453
61744,40402
62275,40402
62275,40453
61744,40453
" /> 
<polyline style="fill-rule:evenodd;"
points="61744,40257
61744,40205
62275,40205
62275,40257
61744,40257
" /> 
<polyline style="fill-rule:evenodd;"
points="61744,40060
61744,40009
62275,40009
62275,40060
61744,40060
" /> 
<polyline style="fill-rule:evenodd;"
points="61744,39863
61744,39812
62275,39812
62275,39863
61744,39863
" /> 
<polyline style="fill-rule:evenodd;"
points="56045,35039
56560,35554
55070,37043
54556,36529
56045,35039
" /> 
<polyline style="fill-rule:evenodd;"
points="53429,37656
53943,38170
52454,39660
51939,39145
53429,37656
" /> 
<polyline style="fill-rule:evenodd;"
points="78972,34577
79227,34577
79227,34832
78972,34832
78972,34577
" /> 
<polyline style="fill-rule:evenodd;"
points="78972,35167
79227,35167
79227,35422
78972,35422
78972,35167
" /> 
<polyline style="fill-rule:evenodd;"
points="44431,45519
44668,45519
44668,45932
44431,45932
44431,45519
" /> 
<polyline style="fill-rule:evenodd;"
points="44431,46267
44668,46267
44668,46680
44431,46680
44431,46267
" /> 
<polyline style="fill-rule:evenodd;"
points="44189,47252
44189,47547
43776,47547
43776,47252
44189,47252
" /> 
<polyline style="fill-rule:evenodd;"
points="43323,47252
43323,47547
42910,47547
42910,47252
43323,47252
" /> 
</g> 
</svg>
