G04 #@! TF.FileFunction,Soldermask,Top*
%FSLAX46Y46*%
G04 Gerber Fmt 4.6, Leading zero omitted, Abs format (unit mm)*
G04 Created by KiCad (PCBNEW 4.0.1-stable) date 9/28/2017 6:23:12 PM*
%MOMM*%
G01*
G04 APERTURE LIST*
%ADD10C,0.150000*%
%ADD11C,0.100000*%
%ADD12C,0.300000*%
%ADD13R,1.500000X0.400000*%
%ADD14C,1.500000*%
%ADD15O,2.500000X2.200000*%
%ADD16R,2.000000X1.300000*%
%ADD17R,1.800000X1.300000*%
%ADD18R,1.727200X1.727200*%
%ADD19O,1.727200X1.727200*%
%ADD20C,1.000760*%
%ADD21C,2.200000*%
%ADD22R,0.750000X1.200000*%
%ADD23R,1.200000X0.750000*%
%ADD24R,3.500120X2.400300*%
%ADD25R,3.500120X3.500120*%
%ADD26R,0.797560X0.797560*%
%ADD27R,3.500120X1.800860*%
%ADD28R,2.032000X3.657600*%
%ADD29R,2.032000X1.016000*%
%ADD30R,1.198880X1.198880*%
%ADD31R,1.727200X2.032000*%
%ADD32O,1.727200X2.032000*%
%ADD33C,1.800000*%
%ADD34C,1.600000*%
%ADD35R,0.800100X0.800100*%
%ADD36R,0.900000X1.200000*%
%ADD37R,1.200000X0.900000*%
%ADD38R,0.280000X1.500000*%
%ADD39R,1.500000X0.280000*%
G04 APERTURE END LIST*
D10*
D11*
X220980000Y-127127000D02*
X220980000Y-120015000D01*
X220980000Y-120015000D02*
X220980000Y-81280000D01*
X220980000Y-132080000D02*
X220980000Y-127127000D01*
D12*
X213722857Y-85634286D02*
X213299524Y-85634286D01*
X213299524Y-86299524D02*
X213299524Y-85029524D01*
X213904286Y-85029524D01*
X214085714Y-86420476D02*
X215053333Y-86420476D01*
X215355714Y-86299524D02*
X215355714Y-85029524D01*
X215779047Y-85936667D01*
X216202381Y-85029524D01*
X216202381Y-86299524D01*
X216746667Y-85936667D02*
X217351429Y-85936667D01*
X216625714Y-86299524D02*
X217049048Y-85029524D01*
X217472381Y-86299524D01*
X217835238Y-86239048D02*
X218016666Y-86299524D01*
X218319047Y-86299524D01*
X218440000Y-86239048D01*
X218500476Y-86178571D01*
X218560952Y-86057619D01*
X218560952Y-85936667D01*
X218500476Y-85815714D01*
X218440000Y-85755238D01*
X218319047Y-85694762D01*
X218077143Y-85634286D01*
X217956190Y-85573810D01*
X217895714Y-85513333D01*
X217835238Y-85392381D01*
X217835238Y-85271429D01*
X217895714Y-85150476D01*
X217956190Y-85090000D01*
X218077143Y-85029524D01*
X218379523Y-85029524D01*
X218560952Y-85090000D01*
X219105238Y-86299524D02*
X219105238Y-85029524D01*
X219830952Y-86299524D02*
X219286667Y-85573810D01*
X219830952Y-85029524D02*
X219105238Y-85755238D01*
D11*
X92710000Y-81280000D02*
X218440000Y-81280000D01*
X92710000Y-132080000D02*
X220980000Y-132080000D01*
X88900000Y-85090000D02*
X88900000Y-128270000D01*
X88900000Y-128270000D02*
G75*
G03X92710000Y-132080000I3810000J0D01*
G01*
X92710000Y-81280000D02*
G75*
G03X88900000Y-85090000I0J-3810000D01*
G01*
X218440000Y-81280000D02*
X220980000Y-81280000D01*
D13*
X216054000Y-124896400D03*
X216054000Y-124246400D03*
X216054000Y-123596400D03*
X216054000Y-122946400D03*
X216054000Y-122296400D03*
D14*
X216154000Y-126021400D03*
D15*
X218804000Y-127221400D03*
D14*
X216154000Y-121171400D03*
D15*
X218804000Y-119971400D03*
D16*
X122630000Y-112931000D03*
X122630000Y-116681000D03*
X116130000Y-112931000D03*
X116130000Y-116431000D03*
D17*
X115880000Y-109827000D03*
X115880000Y-106327000D03*
X122630000Y-106327000D03*
X122630000Y-109827000D03*
D16*
X122630000Y-99088000D03*
X122630000Y-102588000D03*
X116130000Y-102588000D03*
X116130000Y-99088000D03*
X122503000Y-90452000D03*
X122503000Y-93952000D03*
X116003000Y-93952000D03*
X116003000Y-90452000D03*
D18*
X128778000Y-112776000D03*
D19*
X126238000Y-112776000D03*
X128778000Y-110236000D03*
X126238000Y-110236000D03*
X128778000Y-107696000D03*
X126238000Y-107696000D03*
X128778000Y-105156000D03*
X126238000Y-105156000D03*
D20*
X146824700Y-94615000D03*
X148323300Y-94615000D03*
D21*
X179451000Y-97348040D03*
X179451000Y-117348000D03*
D22*
X126873000Y-91882000D03*
X126873000Y-89982000D03*
X125603000Y-101661000D03*
X125603000Y-99761000D03*
D10*
G36*
X138752850Y-88300820D02*
X139283180Y-88831150D01*
X138434652Y-89679678D01*
X137904322Y-89149348D01*
X138752850Y-88300820D01*
X138752850Y-88300820D01*
G37*
G36*
X137409348Y-89644322D02*
X137939678Y-90174652D01*
X137091150Y-91023180D01*
X136560820Y-90492850D01*
X137409348Y-89644322D01*
X137409348Y-89644322D01*
G37*
G36*
X133545850Y-93507820D02*
X134076180Y-94038150D01*
X133227652Y-94886678D01*
X132697322Y-94356348D01*
X133545850Y-93507820D01*
X133545850Y-93507820D01*
G37*
G36*
X132202348Y-94851322D02*
X132732678Y-95381652D01*
X131884150Y-96230180D01*
X131353820Y-95699850D01*
X132202348Y-94851322D01*
X132202348Y-94851322D01*
G37*
D23*
X184851000Y-97409000D03*
X186751000Y-97409000D03*
D10*
G36*
X139641850Y-99095820D02*
X140172180Y-99626150D01*
X139323652Y-100474678D01*
X138793322Y-99944348D01*
X139641850Y-99095820D01*
X139641850Y-99095820D01*
G37*
G36*
X138298348Y-100439322D02*
X138828678Y-100969652D01*
X137980150Y-101818180D01*
X137449820Y-101287850D01*
X138298348Y-100439322D01*
X138298348Y-100439322D01*
G37*
D22*
X161163000Y-93411000D03*
X161163000Y-95311000D03*
X162814000Y-93411000D03*
X162814000Y-95311000D03*
D10*
G36*
X167223180Y-111955850D02*
X166692850Y-112486180D01*
X165844322Y-111637652D01*
X166374652Y-111107322D01*
X167223180Y-111955850D01*
X167223180Y-111955850D01*
G37*
G36*
X165879678Y-110612348D02*
X165349348Y-111142678D01*
X164500820Y-110294150D01*
X165031150Y-109763820D01*
X165879678Y-110612348D01*
X165879678Y-110612348D01*
G37*
D23*
X147635000Y-117856000D03*
X145735000Y-117856000D03*
D22*
X158623000Y-115890000D03*
X158623000Y-117790000D03*
X163322000Y-89347000D03*
X163322000Y-91247000D03*
X161163000Y-89347000D03*
X161163000Y-91247000D03*
D10*
G36*
X137165350Y-108938320D02*
X137695680Y-109468650D01*
X136847152Y-110317178D01*
X136316822Y-109786848D01*
X137165350Y-108938320D01*
X137165350Y-108938320D01*
G37*
G36*
X135821848Y-110281822D02*
X136352178Y-110812152D01*
X135503650Y-111660680D01*
X134973320Y-111130350D01*
X135821848Y-110281822D01*
X135821848Y-110281822D01*
G37*
G36*
X164025850Y-100111820D02*
X164556180Y-100642150D01*
X163707652Y-101490678D01*
X163177322Y-100960348D01*
X164025850Y-100111820D01*
X164025850Y-100111820D01*
G37*
G36*
X162682348Y-101455322D02*
X163212678Y-101985652D01*
X162364150Y-102834180D01*
X161833820Y-102303850D01*
X162682348Y-101455322D01*
X162682348Y-101455322D01*
G37*
D23*
X208346000Y-129794000D03*
X210246000Y-129794000D03*
D24*
X210108800Y-103632000D03*
X216611200Y-103632000D03*
X210108800Y-112776000D03*
X216611200Y-112776000D03*
D25*
X207159860Y-93980000D03*
X213159340Y-93980000D03*
X210159600Y-89281000D03*
D26*
X110236000Y-93357700D03*
X110236000Y-94856300D03*
D10*
G36*
X131423165Y-125426795D02*
X130859205Y-124862835D01*
X131423165Y-124298875D01*
X131987125Y-124862835D01*
X131423165Y-125426795D01*
X131423165Y-125426795D01*
G37*
G36*
X132482835Y-124367125D02*
X131918875Y-123803165D01*
X132482835Y-123239205D01*
X133046795Y-123803165D01*
X132482835Y-124367125D01*
X132482835Y-124367125D01*
G37*
G36*
X128883165Y-125172795D02*
X128319205Y-124608835D01*
X128883165Y-124044875D01*
X129447125Y-124608835D01*
X128883165Y-125172795D01*
X128883165Y-125172795D01*
G37*
G36*
X129942835Y-124113125D02*
X129378875Y-123549165D01*
X129942835Y-122985205D01*
X130506795Y-123549165D01*
X129942835Y-124113125D01*
X129942835Y-124113125D01*
G37*
G36*
X126089165Y-125172795D02*
X125525205Y-124608835D01*
X126089165Y-124044875D01*
X126653125Y-124608835D01*
X126089165Y-125172795D01*
X126089165Y-125172795D01*
G37*
G36*
X127148835Y-124113125D02*
X126584875Y-123549165D01*
X127148835Y-122985205D01*
X127712795Y-123549165D01*
X127148835Y-124113125D01*
X127148835Y-124113125D01*
G37*
G36*
X123041165Y-125045795D02*
X122477205Y-124481835D01*
X123041165Y-123917875D01*
X123605125Y-124481835D01*
X123041165Y-125045795D01*
X123041165Y-125045795D01*
G37*
G36*
X124100835Y-123986125D02*
X123536875Y-123422165D01*
X124100835Y-122858205D01*
X124664795Y-123422165D01*
X124100835Y-123986125D01*
X124100835Y-123986125D01*
G37*
D27*
X200746360Y-107950000D03*
X195747640Y-107950000D03*
D26*
X206121000Y-125869700D03*
X206121000Y-127368300D03*
D28*
X194818000Y-115316000D03*
D29*
X201422000Y-115316000D03*
X201422000Y-113030000D03*
X201422000Y-117602000D03*
D28*
X194437000Y-100457000D03*
D29*
X201041000Y-100457000D03*
X201041000Y-98171000D03*
X201041000Y-102743000D03*
D30*
X165066980Y-93345000D03*
X167165020Y-93345000D03*
X165066980Y-95377000D03*
X167165020Y-95377000D03*
X165066980Y-89281000D03*
X167165020Y-89281000D03*
X165066980Y-91313000D03*
X167165020Y-91313000D03*
D31*
X195580000Y-86360000D03*
D32*
X193040000Y-86360000D03*
X190500000Y-86360000D03*
X187960000Y-86360000D03*
X185420000Y-86360000D03*
X182880000Y-86360000D03*
X180340000Y-86360000D03*
X177800000Y-86360000D03*
X175260000Y-86360000D03*
X172720000Y-86360000D03*
X170180000Y-86360000D03*
X167640000Y-86360000D03*
X165100000Y-86360000D03*
X162560000Y-86360000D03*
X160020000Y-86360000D03*
X157480000Y-86360000D03*
X154940000Y-86360000D03*
X152400000Y-86360000D03*
X149860000Y-86360000D03*
X147320000Y-86360000D03*
X144780000Y-86360000D03*
X142240000Y-86360000D03*
X139700000Y-86360000D03*
X137160000Y-86360000D03*
X134620000Y-86360000D03*
X132080000Y-86360000D03*
X129540000Y-86360000D03*
X127000000Y-86360000D03*
X124460000Y-86360000D03*
X121920000Y-86360000D03*
X119380000Y-86360000D03*
X116840000Y-86360000D03*
X114300000Y-86360000D03*
X111760000Y-86360000D03*
X109220000Y-86360000D03*
X106680000Y-86360000D03*
X104140000Y-86360000D03*
X101600000Y-86360000D03*
X99060000Y-86360000D03*
X96520000Y-86360000D03*
D33*
X100330000Y-118110000D03*
X97790000Y-118110000D03*
X100330000Y-115570000D03*
X97790000Y-115570000D03*
X100330000Y-113030000D03*
X97790000Y-113030000D03*
X100330000Y-110490000D03*
X97790000Y-110490000D03*
D34*
X100330000Y-107950000D03*
D33*
X97790000Y-107950000D03*
D34*
X100330000Y-105410000D03*
D33*
X97790000Y-105410000D03*
X100330000Y-102870000D03*
X97790000Y-102870000D03*
X100330000Y-100330000D03*
X97790000Y-100330000D03*
X100330000Y-97790000D03*
X97790000Y-97790000D03*
X100330000Y-95250000D03*
X97790000Y-95250000D03*
D31*
X195580000Y-127000000D03*
D32*
X193040000Y-127000000D03*
X190500000Y-127000000D03*
X187960000Y-127000000D03*
X185420000Y-127000000D03*
X182880000Y-127000000D03*
X180340000Y-127000000D03*
X177800000Y-127000000D03*
X175260000Y-127000000D03*
X172720000Y-127000000D03*
X170180000Y-127000000D03*
X167640000Y-127000000D03*
X165100000Y-127000000D03*
X162560000Y-127000000D03*
X160020000Y-127000000D03*
X157480000Y-127000000D03*
X154940000Y-127000000D03*
X152400000Y-127000000D03*
X149860000Y-127000000D03*
X147320000Y-127000000D03*
X144780000Y-127000000D03*
X142240000Y-127000000D03*
X139700000Y-127000000D03*
X137160000Y-127000000D03*
X134620000Y-127000000D03*
X132080000Y-127000000D03*
X129540000Y-127000000D03*
X127000000Y-127000000D03*
X124460000Y-127000000D03*
X121920000Y-127000000D03*
X119380000Y-127000000D03*
X116840000Y-127000000D03*
X114300000Y-127000000D03*
X111760000Y-127000000D03*
X109220000Y-127000000D03*
X106680000Y-127000000D03*
X104140000Y-127000000D03*
X101600000Y-127000000D03*
X99060000Y-127000000D03*
X96520000Y-127000000D03*
D35*
X202123000Y-125841760D03*
X204023000Y-125841760D03*
X203073000Y-123842780D03*
D36*
X112522000Y-94826000D03*
X112522000Y-92626000D03*
D37*
X112479000Y-90551000D03*
X110279000Y-90551000D03*
D36*
X104902000Y-115740000D03*
X104902000Y-117940000D03*
D37*
X104818000Y-112522000D03*
X107018000Y-112522000D03*
X104818000Y-109982000D03*
X107018000Y-109982000D03*
X104818000Y-107569000D03*
X107018000Y-107569000D03*
X104818000Y-105029000D03*
X107018000Y-105029000D03*
X104818000Y-102870000D03*
X107018000Y-102870000D03*
X104818000Y-97790000D03*
X107018000Y-97790000D03*
X104818000Y-95250000D03*
X107018000Y-95250000D03*
X120480000Y-96393000D03*
X118280000Y-96393000D03*
D36*
X132080000Y-89197000D03*
X132080000Y-91397000D03*
X134620000Y-89070000D03*
X134620000Y-91270000D03*
X153797000Y-89070000D03*
X153797000Y-91270000D03*
X156083000Y-88943000D03*
X156083000Y-91143000D03*
X171450000Y-89705000D03*
X171450000Y-91905000D03*
X173482000Y-89705000D03*
X173482000Y-91905000D03*
D37*
X196512000Y-90678000D03*
X198712000Y-90678000D03*
X210904000Y-125476000D03*
X208704000Y-125476000D03*
D36*
X198882000Y-86276000D03*
X198882000Y-88476000D03*
D37*
X208704000Y-122555000D03*
X210904000Y-122555000D03*
X208704000Y-120523000D03*
X210904000Y-120523000D03*
X128608000Y-116205000D03*
X126408000Y-116205000D03*
D36*
X206248000Y-120439000D03*
X206248000Y-122639000D03*
D37*
X210396000Y-127889000D03*
X208196000Y-127889000D03*
D36*
X113411000Y-109177000D03*
X113411000Y-106977000D03*
D37*
X201846000Y-121793000D03*
X204046000Y-121793000D03*
X203919000Y-127889000D03*
X201719000Y-127889000D03*
X198671000Y-93345000D03*
X200871000Y-93345000D03*
D34*
X207867000Y-84328000D03*
X205867000Y-84328000D03*
X203867000Y-84328000D03*
D33*
X201867000Y-84328000D03*
X209867000Y-84328000D03*
D38*
X155606000Y-99288000D03*
X155106000Y-99288000D03*
X154606000Y-99288000D03*
X154106000Y-99288000D03*
X153606000Y-99288000D03*
X153106000Y-99288000D03*
X152606000Y-99288000D03*
X152106000Y-99288000D03*
X151606000Y-99288000D03*
X151106000Y-99288000D03*
X150606000Y-99288000D03*
X150106000Y-99288000D03*
X149606000Y-99288000D03*
X149106000Y-99288000D03*
X148606000Y-99288000D03*
X148106000Y-99288000D03*
X147606000Y-99288000D03*
X147106000Y-99288000D03*
X146606000Y-99288000D03*
X146106000Y-99288000D03*
X145606000Y-99288000D03*
X145106000Y-99288000D03*
X144606000Y-99288000D03*
X144106000Y-99288000D03*
X143606000Y-99288000D03*
D39*
X141706000Y-101188000D03*
X141706000Y-101688000D03*
X141706000Y-102188000D03*
X141706000Y-102688000D03*
X141706000Y-103188000D03*
X141706000Y-103688000D03*
X141706000Y-104188000D03*
X141706000Y-104688000D03*
X141706000Y-105188000D03*
X141706000Y-105688000D03*
X141706000Y-106188000D03*
X141706000Y-106688000D03*
X141706000Y-107188000D03*
X141706000Y-107688000D03*
X141706000Y-108188000D03*
X141706000Y-108688000D03*
X141706000Y-109188000D03*
X141706000Y-109688000D03*
X141706000Y-110188000D03*
X141706000Y-110688000D03*
X141706000Y-111188000D03*
X141706000Y-111688000D03*
X141706000Y-112188000D03*
X141706000Y-112688000D03*
X141706000Y-113188000D03*
D38*
X143606000Y-115088000D03*
X144106000Y-115088000D03*
X144606000Y-115088000D03*
X145106000Y-115088000D03*
X145606000Y-115088000D03*
X146106000Y-115088000D03*
X146606000Y-115088000D03*
X147106000Y-115088000D03*
X147606000Y-115088000D03*
X148106000Y-115088000D03*
X148606000Y-115088000D03*
X149106000Y-115088000D03*
X149606000Y-115088000D03*
X150106000Y-115088000D03*
X150606000Y-115088000D03*
X151106000Y-115088000D03*
X151606000Y-115088000D03*
X152106000Y-115088000D03*
X152606000Y-115088000D03*
X153106000Y-115088000D03*
X153606000Y-115088000D03*
X154106000Y-115088000D03*
X154606000Y-115088000D03*
X155106000Y-115088000D03*
X155606000Y-115088000D03*
D39*
X157506000Y-113188000D03*
X157506000Y-112688000D03*
X157506000Y-112188000D03*
X157506000Y-111688000D03*
X157506000Y-111188000D03*
X157506000Y-110688000D03*
X157506000Y-110188000D03*
X157506000Y-109688000D03*
X157506000Y-109188000D03*
X157506000Y-108688000D03*
X157506000Y-108188000D03*
X157506000Y-107688000D03*
X157506000Y-107188000D03*
X157506000Y-106688000D03*
X157506000Y-106188000D03*
X157506000Y-105688000D03*
X157506000Y-105188000D03*
X157506000Y-104688000D03*
X157506000Y-104188000D03*
X157506000Y-103688000D03*
X157506000Y-103188000D03*
X157506000Y-102688000D03*
X157506000Y-102188000D03*
X157506000Y-101688000D03*
X157506000Y-101188000D03*
D10*
G36*
X142355174Y-88895333D02*
X143768667Y-90308826D01*
X139880216Y-94197277D01*
X138466723Y-92783784D01*
X142355174Y-88895333D01*
X142355174Y-88895333D01*
G37*
G36*
X135709784Y-95540723D02*
X137123277Y-96954216D01*
X133234826Y-100842667D01*
X131821333Y-99429174D01*
X135709784Y-95540723D01*
X135709784Y-95540723D01*
G37*
D26*
X200914000Y-88150700D03*
X200914000Y-89649300D03*
D22*
X113157000Y-116144000D03*
X113157000Y-118044000D03*
D37*
X111717000Y-120396000D03*
X109517000Y-120396000D03*
M02*
